<svg width="29" height="29" viewBox="0 0 29 29" fill="none" xmlns="http://www.w3.org/2000/svg">
<g opacity="0.85" clip-path="url(#clip0_8_68)">
<path d="M10.5844 13.9209C13.3619 13.9209 15.6136 11.6693 15.6136 8.89179C15.6136 6.11426 13.3619 3.86263 10.5844 3.86263C7.80687 3.86263 5.55524 6.11426 5.55524 8.89179C5.55524 11.6693 7.80687 13.9209 10.5844 13.9209Z" stroke="white" stroke-width="2.51988" stroke-linecap="round" stroke-linejoin="round"/>
<path d="M1.53192 28.0026H10.5844H19.6369V26.9121C19.6209 25.3788 19.2165 23.8745 18.4616 22.5399C17.7066 21.2052 16.6256 20.0837 15.3197 19.2801C14.0138 18.4764 12.5255 18.0169 10.9938 17.9444C10.8573 17.9379 10.7208 17.9345 10.5844 17.9342C10.4481 17.9345 10.3116 17.9379 10.175 17.9444C8.64334 18.0169 7.15503 18.4764 5.8491 19.2801C4.54318 20.0837 3.46225 21.2052 2.70728 22.5399C1.95231 23.8745 1.54794 25.3788 1.53192 26.9121V28.0026Z" stroke="white" stroke-width="2.51988" stroke-linecap="round" stroke-linejoin="round"/>
<path d="M18.6311 13.9209C21.4086 13.9209 23.6603 11.6693 23.6603 8.89179C23.6603 6.11426 21.4086 3.86263 18.6311 3.86263" stroke="white" stroke-width="2.51988" stroke-linecap="round" stroke-linejoin="round"/>
<path d="M23.6603 28.0028H27.6836V26.9121C27.6675 25.3788 27.2632 23.8745 26.5082 22.5399C25.7532 21.2052 24.6723 20.0837 23.3664 19.2801C22.5223 18.7606 21.6017 18.3849 20.6428 18.1646" stroke="white" stroke-width="2.51988" stroke-linecap="round" stroke-linejoin="round"/>
</g>
<defs>
<clipPath id="clip0_8_68">
<rect width="28.1633" height="28.1633" fill="white" transform="translate(0.526123 0.845093)"/>
</clipPath>
</defs>
</svg>
