<svg width="53" height="53" viewBox="0 0 53 53" fill="none" xmlns="http://www.w3.org/2000/svg">
<path d="M43.4594 39.9184C44.8151 37.9999 45.8383 35.8767 46.4778 33.5745H18.7745V39.9184H43.4594ZM41.3874 42.4253H11.3562C15.1677 46.339 20.4628 48.7947 26.3718 48.7947C32.2552 48.7947 37.5759 46.3646 41.3874 42.4253ZM9.28424 39.9184H16.2676V31.0677H25.1184V22.2169H33.9691V13.3662H41.3618C37.5759 9.45242 32.2552 7.0223 26.3462 7.0223C14.8096 7.0223 5.44721 16.3846 5.44721 27.9213C5.47279 32.3723 6.8797 36.5418 9.28424 39.9184ZM47.015 31.0677C47.1685 30.0189 47.2452 28.9701 47.2452 27.8957C47.2452 26.8214 47.1685 25.747 47.015 24.7238H27.6252V31.0932H47.015V31.0677ZM43.4594 15.873H36.476V22.2169H46.4778C45.8383 19.9147 44.7895 17.766 43.4594 15.873ZM2.99152 27.8957C2.99152 14.9777 13.4538 4.51544 26.3718 4.51544C39.2898 4.51544 49.7521 14.9777 49.7521 27.8957C49.7521 40.8137 39.2898 51.276 26.3718 51.276C13.4538 51.276 2.99152 40.8137 2.99152 27.8957Z" fill="white"/>
</svg>
