<svg width="38" height="35" viewBox="0 0 38 35" fill="none" xmlns="http://www.w3.org/2000/svg">
<g opacity="0.85" clip-path="url(#clip0_8_55)">
<path d="M16.8708 17.1941C16.576 17.1941 16.337 16.9551 16.337 16.6603C16.337 16.3655 16.576 16.1265 16.8708 16.1265" stroke="white" stroke-width="2.22342" stroke-linecap="round" stroke-linejoin="round"/>
<path d="M16.8708 17.1941C17.1656 17.1941 17.4046 16.9551 17.4046 16.6603C17.4046 16.3655 17.1656 16.1265 16.8708 16.1265" stroke="white" stroke-width="2.22342" stroke-linecap="round" stroke-linejoin="round"/>
<path d="M10.9991 17.1941C10.7043 17.1941 10.4653 16.9551 10.4653 16.6603C10.4653 16.3655 10.7043 16.1265 10.9991 16.1265" stroke="white" stroke-width="2.22342" stroke-linecap="round" stroke-linejoin="round"/>
<path d="M10.999 17.1941C11.2938 17.1941 11.5328 16.9551 11.5328 16.6603C11.5328 16.3655 11.2938 16.1265 10.999 16.1265" stroke="white" stroke-width="2.22342" stroke-linecap="round" stroke-linejoin="round"/>
<path d="M22.7426 17.1941C22.4478 17.1941 22.2088 16.9551 22.2088 16.6603C22.2088 16.3655 22.4478 16.1265 22.7426 16.1265" stroke="white" stroke-width="2.22342" stroke-linecap="round" stroke-linejoin="round"/>
<path d="M22.7426 17.1941C23.0374 17.1941 23.2765 16.9551 23.2765 16.6603C23.2765 16.3655 23.0374 16.1265 22.7426 16.1265" stroke="white" stroke-width="2.22342" stroke-linecap="round" stroke-linejoin="round"/>
<path d="M16.8627 2.91077C14.3756 2.91154 11.9352 3.58691 9.80159 4.86494C7.66796 6.14298 5.92093 7.9758 4.74658 10.1682C3.57222 12.3606 3.01453 14.8305 3.1329 17.3148C3.25127 19.7991 4.04127 22.2048 5.41875 24.2756L3.11304 30.4102L10.834 29.014C12.6932 29.9225 14.7334 30.3997 16.8027 30.41C18.872 30.4202 20.9169 29.9633 22.785 29.0731C24.653 28.1832 26.2963 26.8828 27.5917 25.2693C28.8873 23.6559 29.8023 21.7708 30.2677 19.7545C30.7334 17.7383 30.7381 15.643 30.2812 13.6248C29.8243 11.6065 28.9179 9.71745 27.6293 8.09834C26.3407 6.47921 24.7032 5.17183 22.8391 4.27362C20.9749 3.37541 18.932 2.90955 16.8627 2.91077Z" stroke="white" stroke-width="2.51988" stroke-linecap="round" stroke-linejoin="round"/>
<circle cx="30.9483" cy="27.7774" r="6.67026" fill="#FF8888" fill-opacity="0.7"/>
<circle cx="30.9483" cy="27.7774" r="5.92912" stroke="black" stroke-opacity="0.3" stroke-width="1.48228"/>
</g>
<defs>
<clipPath id="clip0_8_55">
<rect width="37.057" height="34.0924" fill="white" transform="translate(0.561523 0.355164)"/>
</clipPath>
</defs>
</svg>
